# xmcd CD database file
#
# Track frame offsets:
#	150
#	8975
#	27306
#	48734
#	71038
#	87227
#	108348
#	135607
#	151226
#	169921
#	188407
#	212470
#	233787
#	254007
#
# Disc length: 3607 seconds
#
# Revision: 0
# Processed by: cddbd v1.5PL3 Copyright (c) Steve Scherf et al.
# Submitted via: CDex 1.40Release
#
DISCID=bb0e150e
DTITLE=Koda Kumi - grow into one
DYEAR=1900
DGENRE=Blues
TTITLE0=Teaser feat．Clench and Blistah
TTITLE1=real Emotion
TTITLE2=BOY FRIEND？
TTITLE3=Your only one
TTITLE4=one
TTITLE5=One night romance
TTITLE6=1000の言葉 (Original Mix)
TTITLE7=S．O．S -sound of silence-
TTITLE8=m・a・z・e
TTITLE9=乱反射
TTITLE10=Pearl Moon
TTITLE11=Nasty girl
TTITLE12=To be one
TTITLE13=love across the ocean
EXTD=ID3G: 0
EXTT0=
EXTT1=
EXTT2=
EXTT3=
EXTT4=
EXTT5=
EXTT6=
EXTT7=
EXTT8=
EXTT9=
EXTT10=
EXTT11=
EXTT12=
EXTT13=
PLAYORDER=
